<?xml version="1.0" encoding="utf-8"?>
<!-- Generator: Adobe Illustrator 26.0.0, SVG Export Plug-In . SVG Version: 6.00 Build 0)  -->
<svg version="1.1" id="Layer_1" xmlns="http://www.w3.org/2000/svg" xmlns:xlink="http://www.w3.org/1999/xlink" x="0px" y="0px"
	 viewBox="0 0 822 765.12" style="enable-background:new 0 0 822 765.12;" xml:space="preserve">
<style type="text/css">
	.st0{fill:#413CA1;}
</style>
<g>
	<path class="st0" d="M411.08,614.6c-78.04,0-156.09,0.03-234.13-0.04c-7.75-0.01-15.42-1.12-22.94-3.21
		c-7.68-2.14-14.95-5.13-21.64-9.46c-7.79-5.04-14.18-11.4-18.12-19.96c-2.21-4.79-3.25-9.87-3.25-15.1
		c-0.03-136.45-0.03-272.9-0.01-409.35c0-10.56,3.85-19.61,11.13-27.23c6.81-7.14,15.09-11.99,24.25-15.43
		c7.75-2.91,15.74-4.77,24.02-5.27c4.22-0.26,8.45-0.59,12.67-0.61c20.79-0.06,41.58-0.03,62.37-0.03c0.8,0,1.6,0.02,2.4-0.01
		c2.25-0.08,2.44-0.2,2.67-2.44c0.29-2.82,1.73-4.94,3.89-6.61c2.85-2.2,6.17-3.46,9.66-3.95c5.45-0.76,10.9-1.21,16.47-0.82
		c4.99,0.35,10.12,0.18,15.05-0.6c7.26-1.14,13.22-5.04,18.04-10.58c3.88-4.46,7.58-9.08,11.54-13.47
		c4.75-5.26,10.46-9.07,17.45-10.82c4.83-1.2,9.72-1.81,14.69-1.83c23.67-0.05,47.33-0.07,71-0.18c8.7-0.04,17.41-0.52,26.11-0.35
		c5.47,0.1,11.02,0.34,16.24,2.47c4.11,1.68,8,3.75,11.05,7c3.55,3.78,6.93,7.73,10.26,11.7c3.29,3.93,6.69,7.71,10.97,10.64
		c4.41,3.03,9.11,4.66,14.56,4.59c7.59-0.1,15.19,0.46,22.77,0.25c5.61-0.16,10.97,0.95,16.36,1.99c3.24,0.63,6.22,2.04,8.66,4.38
		c1.53,1.47,2.61,3.17,3.02,5.32c0.64,3.32,0.7,3.32,4.2,3.32c4.64,0,9.28,0,13.91,0c16.39,0,32.78,0.05,49.18-0.02
		c8.97-0.04,17.91,0.24,26.72,2.04c12.46,2.55,24.01,7.17,33.79,15.54c4.46,3.81,8.35,8.16,10.99,13.47
		c2.45,4.92,3.94,10.05,3.94,15.63c-0.02,137.41-0.03,274.82,0,412.23c0,8-2.71,15.02-7.34,21.36c-5.91,8.09-13.93,13.52-22.9,17.68
		c-5.89,2.73-12.09,4.62-18.43,5.92c-3.12,0.64-6.32,0.9-9.48,1.29c-6.21,0.78-12.45,0.53-18.68,0.53
		C559.81,614.6,485.44,614.6,411.08,614.6z M411.13,605.49c76.45,0,152.89-0.03,229.34,0.04c9.67,0.01,19.13-1.08,28.35-4
		c8.24-2.61,15.83-6.47,22.27-12.32c7.07-6.42,10.89-14.18,10.88-24.05c-0.11-105.44-0.07-210.88-0.07-316.32
		c0-30.62,0-61.23,0-91.85c0-3.55-0.55-6.98-1.92-10.28c-2.5-6.01-6.7-10.65-11.71-14.61c-6.42-5.08-13.77-8.38-21.58-10.6
		c-7.94-2.26-16.08-3.35-24.37-3.33c-23.27,0.06-46.54,0.02-69.81,0.02c-0.56,0-1.12-0.01-1.68,0.01c-2.21,0.08-2.52,0.47-2.86,2.66
		c-0.66,4.25-1.33,8.51-2.2,12.73c-0.33,1.61-1.07,3.2-1.9,4.63c-2.49,4.25-6.64,5.99-11.18,7.13c-4.87,1.22-9.84,1.1-14.78,1.11
		c-16.31,0.03-32.62-0.12-48.93-0.13c-67.17-0.02-134.34-0.01-201.51-0.01c-6.31,0-12.62,0.09-18.89-0.98
		c-3.57-0.61-7.04-1.48-10.25-3.17c-5.39-2.83-7.94-7.41-7.41-13.08c0.2-2.14,0.41-4.28,0.57-6.43c0.31-4.25,0.1-4.48-4.19-4.48
		c-22.39,0-44.78,0.03-67.17-0.01c-11.24-0.02-22.11,1.84-32.51,6.13c-7.16,2.96-13.69,6.92-18.99,12.68
		c-5.15,5.6-8.36,12.02-8.36,19.81c0.01,136.7,0.01,273.39,0,410.09c0,4.83,1.24,9.32,3.67,13.47c4.16,7.12,10.3,12.17,17.43,16.03
		c11.62,6.28,24.17,9.08,37.33,9.08C256.15,605.5,333.64,605.49,411.13,605.49z"/>
	<path class="st0" d="M445.29,683.78c0.35-0.79,0.56-1.3,0.81-1.79c0.51-0.98,1.45-1.45,2.39-1.11c0.71,0.26,1.32,1.03,1.75,1.72
		c0.27,0.41,0.16,1.09,0.16,1.64c0.01,6.47,0.01,12.94,0.01,19.4c0,0.08,0,0.16,0,0.24c-0.05,1.97-0.61,2.95-1.84,3.24
		c-1.18,0.27-1.84-0.18-2.86-1.95c-0.11-0.2-0.29-0.36-0.53-0.67c-0.33,0.17-0.72,0.27-0.99,0.51c-6.16,5.51-14.75,2.09-17.54-4.27
		c-2.22-5.05-2.03-10.14,1.05-14.87c3.77-5.79,11.41-6.61,16.16-2.9C444.22,683.25,444.66,683.43,445.29,683.78z M445.98,694.37
		c-0.21-1.17-0.29-2.39-0.66-3.51c-0.99-3.04-3.04-5.1-6.25-5.59c-4.19-0.64-6.81,1.5-8.11,4.19c-1.73,3.57-1.62,7.16,0.56,10.48
		c3,4.56,9.77,4.47,12.74-0.12C445.34,698.17,445.89,696.36,445.98,694.37z"/>
	<path class="st0" d="M353.12,695.37c0.47,4.68,3.59,7.62,7.71,7.86c2.42,0.14,4.58-0.35,6.49-1.87c0.25-0.2,0.52-0.38,0.79-0.54
		c1.21-0.71,2.04-0.64,2.77,0.22c0.74,0.87,0.75,2.11-0.27,2.99c-1.14,0.98-2.39,1.88-3.73,2.54c-5.5,2.72-12.39,0.41-15.69-3.45
		c-4.32-5.04-4.72-17.49,5.03-21.52c7.19-2.98,14.29,1.66,16.07,8.15c0.15,0.54,0.21,1.1,0.35,1.64c0.62,2.37-0.91,3.93-3.15,3.86
		c-4.55-0.16-9.11-0.05-13.66-0.04C354.98,695.22,354.13,695.31,353.12,695.37z M360.52,690.76
		C360.52,690.76,360.52,690.76,360.52,690.76c1.83-0.01,3.66,0.05,5.49-0.03c1.43-0.06,1.85-0.82,1.17-2.05
		c-0.34-0.61-0.81-1.2-1.35-1.64c-2.4-2-5.15-2.31-8.07-1.44c-1.66,0.49-2.99,1.48-3.86,3c-0.81,1.41-0.47,2.1,1.13,2.15
		C356.86,690.81,358.7,690.76,360.52,690.76z"/>
	<path class="st0" d="M331.52,698.95c1.07-2.56,1.93-4.57,2.74-6.61c2.37-5.93,4.71-11.86,7.06-17.8c0.06-0.15,0.11-0.3,0.18-0.44
		c0.8-1.55,2.04-2.19,3.26-1.69c1.42,0.58,1.8,1.83,1.06,3.6c-3.95,9.42-7.91,18.84-11.88,28.25c-0.56,1.32-1.06,2.86-2.83,2.86
		c-1.75,0-2.29-1.49-2.86-2.83c-3.86-9.11-7.71-18.23-11.55-27.35c-0.31-0.73-0.54-1.52-0.61-2.3c-0.1-1.06,0.49-1.86,1.46-2.25
		c1.02-0.42,1.99-0.08,2.49,0.84c0.84,1.53,1.56,3.14,2.24,4.75c2.74,6.46,5.45,12.94,8.19,19.41
		C330.63,697.75,330.9,698.04,331.52,698.95z"/>
	<path class="st0" d="M382.92,684.71c0.86-0.68,1.51-1.2,2.17-1.72c3.37-2.67,8.23-3.01,11.39-0.81c1.5,1.05,2.55,2.43,2.96,4.21
		c0.31,1.32,0.62,2.66,0.66,4c0.11,4.47,0.1,8.94,0.13,13.41c0,0.16-0.01,0.32-0.02,0.48c-0.19,1.82-1.23,2.97-2.58,2.87
		c-1.28-0.09-2.16-1.2-2.18-2.94c-0.04-3.59-0.01-7.19-0.01-10.78c0-0.96,0.02-1.92-0.07-2.87c-0.44-4.82-4.04-6.37-8.3-4.92
		c-3.01,1.02-4.54,3.37-4.52,6.64c0.02,3.83,0.02,7.67,0,11.5c-0.01,2.24-0.73,3.32-2.18,3.39c-1.54,0.07-2.44-1.1-2.45-3.4
		c-0.02-6.39-0.01-12.78-0.01-19.17c0-0.24,0-0.48,0.02-0.72c0.15-1.53,0.85-2.44,2.01-2.61c1.21-0.17,1.98,0.44,2.53,2
		C382.58,683.64,382.69,684,382.92,684.71z"/>
	<path class="st0" d="M466.37,707.91c-4.29-0.35-7.55-1.2-10.06-3.89c-0.33-0.35-0.67-0.7-0.91-1.11c-0.63-1.07-0.5-2.08,0.3-2.84
		c0.85-0.8,1.61-0.8,2.81-0.03c1.47,0.94,2.85,2.11,4.45,2.73c2.02,0.79,4.23,0.93,6.22-0.29c2.23-1.36,2.24-3.94-0.09-5.15
		c-1.68-0.87-3.58-1.31-5.37-1.96c-1.28-0.45-2.61-0.79-3.81-1.4c-4.83-2.47-5.17-8.52-0.69-11.51c3.75-2.5,9.77-2.22,13.31,0.63
		c0.43,0.35,0.85,0.73,1.2,1.16c0.95,1.17,0.93,2.29-0.02,3.2c-0.83,0.8-1.49,0.84-2.73-0.15c-1.97-1.57-4.15-2.35-6.67-2.09
		c-0.47,0.05-0.96,0.11-1.4,0.28c-1.17,0.46-2.15,1.18-2.26,2.54c-0.12,1.43,0.61,2.53,1.88,3.06c1.76,0.73,3.61,1.25,5.42,1.86
		c0.91,0.31,1.84,0.55,2.71,0.93c2.72,1.17,4.43,3.14,4.48,6.21c0.05,3.07-1.6,5.16-4.26,6.38
		C469.23,707.22,467.42,707.58,466.37,707.91z"/>
	<path class="st0" d="M410.25,681.09c0-1.41-0.05-2.51,0.01-3.6c0.08-1.63,0.91-2.65,2.12-2.72c1.4-0.08,2.34,0.87,2.54,2.61
		c0.06,0.55,0.02,1.12,0.04,1.67c0.06,1.99,0.17,2.09,2.24,2.16c0.64,0.02,1.28-0.03,1.91,0.05c1.21,0.16,2.13,1.15,2.13,2.2
		c0,1.08-0.87,1.98-2.17,2.14c-0.71,0.09-1.44,0.01-2.15,0.06c-1.5,0.1-1.92,0.4-1.94,1.83c-0.06,4.23-0.07,8.45,0.01,12.68
		c0.04,2.03,0.92,2.77,2.91,2.43c1.21-0.2,2.1-0.09,2.49,1.13c0.36,1.13-0.14,1.95-1.11,2.63c-3.16,2.22-8.21,0.26-8.87-3.53
		c-0.2-1.17-0.17-2.38-0.17-3.58c-0.02-3.59,0-7.18-0.01-10.77c-0.01-2.54-0.02-2.54-2.58-2.84c-1.68-0.2-2.5-1.01-2.4-2.37
		c0.08-1.15,0.75-1.88,1.96-2.03C408.06,681.16,408.93,681.16,410.25,681.09z"/>
	<path class="st0" d="M349.06,259.78c-0.12,4.67,1.42,8.54,3.83,12.15c3.1,4.65,7.48,7.82,12.17,10.64
		c5.03,3.01,10.44,5.19,15.95,7.11c7.47,2.6,15.1,4.6,22.86,6.16c9.31,1.88,18.61,3.87,27.86,6c10.36,2.38,20.6,5.18,30.29,9.68
		c7.45,3.46,14.3,7.81,20,13.8c4.39,4.61,7.64,9.87,8.73,16.22c1.29,7.47-1,14.05-5.5,19.95c-4.55,5.97-10.55,10.18-17.05,13.73
		c-8.82,4.83-18.23,8.01-28.05,10.14c-5.4,1.18-10.87,1.78-16.35,2.35c-2.83,0.3-3.03,0.35-3.14,3.06
		c-0.23,5.9-0.55,11.81-0.48,17.71c0.04,3.63-2.97,7.13-7.81,5.97c-2.04-0.49-3.5-1.76-3.93-3.78c-0.38-1.77-0.46-3.63-0.45-5.46
		c0.01-2.95,0.21-5.9,0.32-8.85c0.06-1.76,0.09-3.51,0.15-5.27c0.1-2.67-0.18-2.99-2.86-3.32c-1.27-0.16-2.53-0.34-3.81-0.45
		c-12.34-1.03-24-4.48-34.92-10.26c-10.28-5.44-19.09-12.58-24.51-23.18c-1.3-2.53-2.23-5.29-3.04-8.03
		c-1.05-3.55,0.82-6.61,4.33-7.55c3.23-0.86,6.46,1.05,7.38,4.41c1.34,4.89,3.89,9.03,7.38,12.7c7.58,7.97,16.92,12.99,27.27,16.28
		c8.74,2.78,17.7,4.11,26.9,4.07c6.33-0.03,12.63-0.1,18.88-1.16c8.77-1.49,17.36-3.68,25.42-7.5c3.59-1.7,7.14-3.61,10.42-5.84
		c2.68-1.82,5.04-4.16,7.36-6.46c1.94-1.92,3.35-4.24,3.9-7.02c0.64-3.24-0.16-6.15-1.73-8.95c-2.44-4.37-6.09-7.59-10.08-10.44
		c-5.76-4.12-12.1-7.14-18.84-9.28c-4.79-1.52-9.59-3-14.45-4.26c-5.33-1.37-10.73-2.48-16.11-3.66c-7.25-1.59-14.55-3-21.76-4.76
		c-6.35-1.55-12.68-3.27-18.89-5.31c-10.24-3.36-19.84-8-27.97-15.3c-5.25-4.71-8.93-10.42-10.84-17.21
		c-1.73-6.15-1.54-12.33,0.28-18.45c3.78-12.65,12.44-21.13,23.64-27.37c7.89-4.39,16.39-7.15,25.21-8.85
		c4.61-0.89,9.33-1.23,14.01-1.82c0.47-0.06,0.96-0.03,1.43-0.11c1.63-0.29,2.08-0.74,2.01-2.4c-0.16-3.35-0.44-6.69-0.64-10.03
		c-0.13-2.23-0.32-4.47-0.27-6.7c0.06-2.93,2.31-5.28,5.21-5.68c3.01-0.42,5.65,1.13,6.52,4.04c0.41,1.35,0.53,2.82,0.62,4.24
		c0.3,4.78,0.5,9.57,0.78,14.35c0.11,1.82,0.3,2.04,2.09,2.3c3.48,0.5,6.96,0.94,10.44,1.4c5.8,0.78,11.42,2.33,16.93,4.24
		c10.67,3.69,20.48,8.95,29.21,16.15c8.14,6.71,14.63,14.71,18.98,24.37c1.32,2.94,0.6,6.04-1.72,7.76
		c-3.11,2.31-7.8,1.02-9.21-2.17c-1.95-4.4-4.5-8.44-7.58-12.17c-6.06-7.33-13.56-12.81-21.88-17.25
		c-8.32-4.44-17.2-7.27-26.44-8.95c-3.92-0.71-7.92-1.1-11.9-1.3c-9.37-0.46-18.7-0.05-27.89,2.07c-9.34,2.16-18.25,5.34-25.98,11.2
		c-4.93,3.73-8.83,8.31-11.14,14.12C349.55,254.33,348.9,257.11,349.06,259.78z"/>
	<path class="st0" d="M223.45,533.63c11.59,0,23.19-0.04,34.78,0.01c20.38,0.08,40.76,0.31,61.14,0.31c21.1,0,42.2-0.21,63.31-0.32
		c6.72-0.04,13.43-0.08,20.15-0.09c37.02-0.06,74.04-0.08,111.06-0.18c12.07-0.03,24.13-0.24,36.2-0.37
		c13.83-0.15,27.65-0.26,41.47-0.45c9.27-0.13,18.53-0.35,27.8-0.54c6.63-0.14,13.26-0.32,19.89-0.41c0.99-0.01,2.12,0.14,2.97,0.61
		c1.77,0.99,2.37,2.82,1.94,5c-0.37,1.88-1.59,2.89-3.39,3.27c-0.62,0.13-1.27,0.19-1.9,0.2c-6.15,0.16-12.3,0.34-18.44,0.43
		c-6.71,0.11-13.43,0.11-20.14,0.19c-7.35,0.1-14.7,0.29-22.04,0.36c-18.3,0.18-36.6,0.36-54.91,0.44
		c-22.87,0.11-45.73,0.09-68.6,0.18c-22.46,0.09-44.92,0.25-67.38,0.38c-20.7,0.12-41.4,0.26-62.11,0.34
		c-20.87,0.07-41.74,0.09-62.61,0.1c-12.55,0-25.11-0.02-37.66-0.1c-7.43-0.05-14.86-0.2-22.29-0.34c-4.63-0.09-9.26-0.21-13.89-0.4
		c-1.16-0.05-2.45-0.19-3.44-0.72c-1.78-0.95-2.37-3.1-1.78-5.26c0.52-1.92,1.84-2.91,4.14-2.93c4-0.03,8,0.02,11.99,0.05
		c6.15,0.05,12.31,0.11,18.46,0.16c1.76,0.01,3.52,0,5.28,0C223.45,533.56,223.45,533.59,223.45,533.63z"/>
	<path class="st0" d="M458.18,478.34c-15.67,0-31.34-0.05-47.01,0.01c-13.66,0.06-27.33,0.28-40.99,0.36
		c-22.94,0.12-45.89,0.2-68.83,0.25c-6.39,0.01-12.79-0.12-19.18-0.25c-6.47-0.14-12.93-0.35-19.4-0.55
		c-2.84-0.09-4.6-1.76-4.69-4.38c-0.09-2.66,1.5-4.48,4.34-4.76c1.42-0.14,2.88-0.06,4.31-0.01c2.23,0.08,4.46,0.3,6.69,0.31
		c29.02,0.14,58.04,0.29,87.06,0.37c13.91,0.04,27.83-0.04,41.74-0.1c16.95-0.07,33.9-0.14,50.84-0.26
		c11.83-0.08,23.65-0.25,35.48-0.37c10.95-0.12,21.9-0.16,32.85-0.37c8.06-0.16,16.12-0.57,24.18-0.82
		c5.59-0.17,11.19-0.31,16.78-0.37c2.26-0.03,3.94,1.17,4.53,2.9c0.6,1.78,0.12,3.86-1.36,5.01c-0.66,0.51-1.55,0.93-2.36,0.99
		c-4.22,0.31-8.44,0.58-12.67,0.68c-8.07,0.2-16.15,0.25-24.22,0.39c-10.94,0.19-21.88,0.5-32.83,0.6
		c-11.75,0.1-23.5,0.02-35.26,0.02C458.18,478.1,458.18,478.22,458.18,478.34z"/>
</g>
</svg>
