<svg width="210" height="45" viewBox="0 0 210 45" fill="none" xmlns="http://www.w3.org/2000/svg">
    <path d="M8.51367 4.88867V17.1055C10.0176 15.543 11.5508 14.3516 13.1133 13.5312C14.6758 12.6914 16.6094 12.2715 18.9141 12.2715C21.5703 12.2715 23.8945 12.9063 25.8867 14.1758C27.8984 15.4258 29.4512 17.252 30.5449 19.6543C31.6582 22.0371 32.2148 24.8691 32.2148 28.1504C32.2148 30.5723 31.9023 32.7988 31.2773 34.8301C30.6719 36.8418 29.7832 38.5898 28.6113 40.0742C27.4395 41.5586 26.0137 42.7109 24.334 43.5312C22.6738 44.332 20.8379 44.7324 18.8262 44.7324C17.5957 44.7324 16.4336 44.5859 15.3398 44.293C14.2656 44 13.3477 43.6191 12.5859 43.1504C11.8242 42.6621 11.1699 42.1641 10.623 41.6562C10.0957 41.1484 9.39258 40.3867 8.51367 39.3711V40.1621C8.51367 41.666 8.15234 42.8086 7.42969 43.5898C6.70703 44.3516 5.78906 44.7324 4.67578 44.7324C3.54297 44.7324 2.63477 44.3516 1.95117 43.5898C1.28711 42.8086 0.955078 41.666 0.955078 40.1621V5.24023C0.955078 3.61914 1.27734 2.39844 1.92188 1.57812C2.58594 0.738281 3.50391 0.318359 4.67578 0.318359C5.90625 0.318359 6.85352 0.71875 7.51758 1.51953C8.18164 2.30078 8.51367 3.42383 8.51367 4.88867ZM8.89453 28.6484C8.89453 31.832 9.61719 34.2832 11.0625 36.002C12.5273 37.7012 14.4414 38.5508 16.8047 38.5508C18.8164 38.5508 20.5449 37.6816 21.9902 35.9434C23.4551 34.1855 24.1875 31.6758 24.1875 28.4141C24.1875 26.3047 23.8848 24.4883 23.2793 22.9648C22.6738 21.4414 21.8145 20.2695 20.7012 19.4492C19.5879 18.6094 18.2891 18.1895 16.8047 18.1895C15.2812 18.1895 13.9238 18.6094 12.7324 19.4492C11.541 20.2695 10.6035 21.4707 9.91992 23.0527C9.23633 24.6152 8.89453 26.4805 8.89453 28.6484ZM60.9551 30.4355H45.3105C45.3301 32.252 45.6914 33.8535 46.3945 35.2402C47.1172 36.627 48.0645 37.6719 49.2363 38.375C50.4277 39.0781 51.7363 39.4297 53.1621 39.4297C54.1191 39.4297 54.9883 39.3223 55.7695 39.1074C56.5703 38.873 57.3418 38.5215 58.084 38.0527C58.8262 37.5645 59.5098 37.0469 60.1348 36.5C60.7598 35.9531 61.5703 35.2109 62.5664 34.2734C62.9766 33.9219 63.5625 33.7461 64.3242 33.7461C65.1445 33.7461 65.8086 33.9707 66.3164 34.4199C66.8242 34.8691 67.0781 35.5039 67.0781 36.3242C67.0781 37.0469 66.7949 37.8965 66.2285 38.873C65.6621 39.8301 64.8027 40.7578 63.6504 41.6562C62.5176 42.5352 61.082 43.2676 59.3438 43.8535C57.625 44.4395 55.6426 44.7324 53.3965 44.7324C48.2598 44.7324 44.2656 43.2676 41.4141 40.3379C38.5625 37.4082 37.1367 33.4336 37.1367 28.4141C37.1367 26.0508 37.4883 23.8633 38.1914 21.8516C38.8945 19.8203 39.9199 18.082 41.2676 16.6367C42.6152 15.1914 44.2754 14.0879 46.248 13.3262C48.2207 12.5449 50.4082 12.1543 52.8105 12.1543C55.9355 12.1543 58.6113 12.8184 60.8379 14.1465C63.084 15.4551 64.7637 17.1543 65.877 19.2441C66.9902 21.334 67.5469 23.4629 67.5469 25.6309C67.5469 27.6426 66.9707 28.9512 65.8184 29.5566C64.666 30.1426 63.0449 30.4355 60.9551 30.4355ZM45.3105 25.8945H59.8125C59.6172 23.1602 58.875 21.1191 57.5859 19.7715C56.3164 18.4043 54.6367 17.7207 52.5469 17.7207C50.5547 17.7207 48.9141 18.4141 47.625 19.8008C46.3555 21.168 45.584 23.1992 45.3105 25.8945ZM100.066 34.2734C100.066 36.4805 99.5293 38.375 98.4551 39.957C97.3809 41.5195 95.7891 42.7109 93.6797 43.5312C91.5898 44.332 89.041 44.7324 86.0332 44.7324C83.1621 44.7324 80.7012 44.293 78.6504 43.4141C76.5996 42.5352 75.0859 41.4414 74.1094 40.1328C73.1328 38.8047 72.6445 37.4766 72.6445 36.1484C72.6445 35.2695 72.957 34.5176 73.582 33.8926C74.207 33.2676 74.998 32.9551 75.9551 32.9551C76.7949 32.9551 77.4395 33.1602 77.8887 33.5703C78.3379 33.9805 78.7676 34.5566 79.1777 35.2988C79.998 36.7246 80.9746 37.7891 82.1074 38.4922C83.2598 39.1953 84.8223 39.5469 86.7949 39.5469C88.3965 39.5469 89.7051 39.1953 90.7207 38.4922C91.7559 37.7695 92.2734 36.9492 92.2734 36.0312C92.2734 34.625 91.7363 33.5996 90.6621 32.9551C89.6074 32.3105 87.8594 31.6953 85.418 31.1094C82.6641 30.4258 80.418 29.7129 78.6797 28.9707C76.9609 28.209 75.584 27.2129 74.5488 25.9824C73.5137 24.752 72.9961 23.2383 72.9961 21.4414C72.9961 19.8398 73.4746 18.3262 74.4316 16.9004C75.3887 15.4746 76.7949 14.3418 78.6504 13.502C80.5254 12.6426 82.7812 12.2129 85.418 12.2129C87.4883 12.2129 89.3438 12.4277 90.9844 12.8574C92.6445 13.2871 94.0215 13.8633 95.1152 14.5859C96.2285 15.3086 97.0684 16.1094 97.6348 16.9883C98.2207 17.8672 98.5137 18.7266 98.5137 19.5664C98.5137 20.4844 98.2012 21.2363 97.5762 21.8223C96.9707 22.4082 96.1016 22.7012 94.9688 22.7012C94.1484 22.7012 93.4453 22.4668 92.8594 21.998C92.293 21.5293 91.6387 20.8262 90.8965 19.8887C90.291 19.1074 89.5781 18.4824 88.7578 18.0137C87.9375 17.5449 86.8242 17.3105 85.418 17.3105C83.9727 17.3105 82.7715 17.623 81.8145 18.248C80.8574 18.8535 80.3789 19.6152 80.3789 20.5332C80.3789 21.373 80.7305 22.0664 81.4336 22.6133C82.1367 23.1406 83.084 23.5801 84.2754 23.9316C85.4668 24.2832 87.1074 24.7129 89.1973 25.2207C91.6777 25.8262 93.6992 26.5488 95.2617 27.3887C96.8438 28.2285 98.0352 29.2246 98.8359 30.377C99.6562 31.5098 100.066 32.8086 100.066 34.2734ZM132.586 34.2734C132.586 36.4805 132.049 38.375 130.975 39.957C129.9 41.5195 128.309 42.7109 126.199 43.5312C124.109 44.332 121.561 44.7324 118.553 44.7324C115.682 44.7324 113.221 44.293 111.17 43.4141C109.119 42.5352 107.605 41.4414 106.629 40.1328C105.652 38.8047 105.164 37.4766 105.164 36.1484C105.164 35.2695 105.477 34.5176 106.102 33.8926C106.727 33.2676 107.518 32.9551 108.475 32.9551C109.314 32.9551 109.959 33.1602 110.408 33.5703C110.857 33.9805 111.287 34.5566 111.697 35.2988C112.518 36.7246 113.494 37.7891 114.627 38.4922C115.779 39.1953 117.342 39.5469 119.314 39.5469C120.916 39.5469 122.225 39.1953 123.24 38.4922C124.275 37.7695 124.793 36.9492 124.793 36.0312C124.793 34.625 124.256 33.5996 123.182 32.9551C122.127 32.3105 120.379 31.6953 117.938 31.1094C115.184 30.4258 112.938 29.7129 111.199 28.9707C109.48 28.209 108.104 27.2129 107.068 25.9824C106.033 24.752 105.516 23.2383 105.516 21.4414C105.516 19.8398 105.994 18.3262 106.951 16.9004C107.908 15.4746 109.314 14.3418 111.17 13.502C113.045 12.6426 115.301 12.2129 117.938 12.2129C120.008 12.2129 121.863 12.4277 123.504 12.8574C125.164 13.2871 126.541 13.8633 127.635 14.5859C128.748 15.3086 129.588 16.1094 130.154 16.9883C130.74 17.8672 131.033 18.7266 131.033 19.5664C131.033 20.4844 130.721 21.2363 130.096 21.8223C129.49 22.4082 128.621 22.7012 127.488 22.7012C126.668 22.7012 125.965 22.4668 125.379 21.998C124.812 21.5293 124.158 20.8262 123.416 19.8887C122.811 19.1074 122.098 18.4824 121.277 18.0137C120.457 17.5449 119.344 17.3105 117.938 17.3105C116.492 17.3105 115.291 17.623 114.334 18.248C113.377 18.8535 112.898 19.6152 112.898 20.5332C112.898 21.373 113.25 22.0664 113.953 22.6133C114.656 23.1406 115.604 23.5801 116.795 23.9316C117.986 24.2832 119.627 24.7129 121.717 25.2207C124.197 25.8262 126.219 26.5488 127.781 27.3887C129.363 28.2285 130.555 29.2246 131.355 30.377C132.176 31.5098 132.586 32.8086 132.586 34.2734ZM182.977 33.1895V39.8691C182.977 41.4902 182.596 42.7109 181.834 43.5312C181.072 44.332 180.105 44.7324 178.934 44.7324C177.781 44.7324 176.834 44.3223 176.092 43.502C175.35 42.6816 174.979 41.4707 174.979 39.8691V17.6035C174.979 14.0098 176.277 12.2129 178.875 12.2129C180.203 12.2129 181.16 12.6328 181.746 13.4727C182.332 14.3125 182.654 15.5527 182.713 17.1934C183.67 15.5527 184.646 14.3125 185.643 13.4727C186.658 12.6328 188.006 12.2129 189.686 12.2129C191.365 12.2129 192.996 12.6328 194.578 13.4727C196.16 14.3125 196.951 15.4258 196.951 16.8125C196.951 17.7891 196.609 18.5996 195.926 19.2441C195.262 19.8691 194.539 20.1816 193.758 20.1816C193.465 20.1816 192.752 20.0059 191.619 19.6543C190.506 19.2832 189.52 19.0977 188.66 19.0977C187.488 19.0977 186.531 19.4102 185.789 20.0352C185.047 20.6406 184.471 21.5488 184.061 22.7598C183.65 23.9707 183.367 25.416 183.211 27.0957C183.055 28.7559 182.977 30.7871 182.977 33.1895Z" fill="#365575"/>
    <path d="M161.678 30.4355H146.033C146.053 32.252 146.414 33.8535 147.117 35.2402C147.84 36.627 148.787 37.6719 149.959 38.375C151.15 39.0781 152.459 39.4297 153.885 39.4297C154.842 39.4297 155.711 39.3223 156.492 39.1074C157.293 38.873 158.064 38.5215 158.807 38.0527C159.549 37.5645 160.232 37.0469 160.857 36.5C161.482 35.9531 162.293 35.2109 163.289 34.2734C163.699 33.9219 164.285 33.7461 165.047 33.7461C165.867 33.7461 166.531 33.9707 167.039 34.4199C167.547 34.8691 167.801 35.5039 167.801 36.3242C167.801 37.0469 167.518 37.8965 166.951 38.873C166.385 39.8301 165.525 40.7578 164.373 41.6562C163.24 42.5352 161.805 43.2676 160.066 43.8535C158.348 44.4395 156.365 44.7324 154.119 44.7324C148.982 44.7324 144.988 43.2676 142.137 40.3379C139.285 37.4082 137.859 33.4336 137.859 28.4141C137.859 26.0508 138.211 23.8633 138.914 21.8516C139.617 19.8203 140.643 18.082 141.99 16.6367C143.338 15.1914 144.998 14.0879 146.971 13.3262C148.943 12.5449 151.131 12.1543 153.533 12.1543C156.658 12.1543 159.334 12.8184 161.561 14.1465C163.807 15.4551 165.486 17.1543 166.6 19.2441C167.713 21.334 168.27 23.4629 168.27 25.6309C168.27 27.6426 167.693 28.9512 166.541 29.5566C165.389 30.1426 163.768 30.4355 161.678 30.4355ZM146.033 25.8945H160.535C160.34 23.1602 159.598 21.1191 158.309 19.7715C157.039 18.4043 155.359 17.7207 153.27 17.7207C151.277 17.7207 149.637 18.4141 148.348 19.8008C147.078 21.168 146.307 23.1992 146.033 25.8945Z" fill="#2A5223"/>
    <path d="M209.344 16.7539V39.8691C209.344 41.4707 208.963 42.6816 208.201 43.502C207.439 44.3223 206.473 44.7324 205.301 44.7324C204.129 44.7324 203.172 44.3125 202.43 43.4727C201.707 42.6328 201.346 41.4316 201.346 39.8691V16.9883C201.346 15.4062 201.707 14.2148 202.43 13.4141C203.172 12.6133 204.129 12.2129 205.301 12.2129C206.473 12.2129 207.439 12.6133 208.201 13.4141C208.963 14.2148 209.344 15.3281 209.344 16.7539ZM205.389 8.49219C204.275 8.49219 203.318 8.15039 202.518 7.4668C201.736 6.7832 201.346 5.81641 201.346 4.56641C201.346 3.43359 201.746 2.50586 202.547 1.7832C203.367 1.04102 204.314 0.669922 205.389 0.669922C206.424 0.669922 207.342 1.00195 208.143 1.66602C208.943 2.33008 209.344 3.29688 209.344 4.56641C209.344 5.79688 208.953 6.76367 208.172 7.4668C207.391 8.15039 206.463 8.49219 205.389 8.49219Z" fill="#E6A832"/>
</svg>
