<svg width="118" height="118" viewBox="0 0 118 118" fill="none" xmlns="http://www.w3.org/2000/svg">
<path d="M46.6135 55.343C46.4978 55.5439 46.4248 55.7022 46.3943 55.7814C46.3152 56.0249 46.2847 56.1467 46.2604 56.2137C46.1203 56.1771 45.9681 56.1162 45.8403 56.1589C45.7185 56.2076 45.6941 56.3293 45.548 56.3659C45.3775 56.4024 45.1218 56.305 44.9513 56.2806C44.586 56.2197 44.2085 56.171 43.8493 56.0858C43.2648 55.9518 43.0638 55.4099 43.0943 54.862C43.1308 54.3505 43.6544 54.1861 44.0624 54.1252C44.4703 54.0522 45.0305 53.8695 45.4201 54.1009C45.9864 54.4419 45.7672 55.4952 46.6135 55.343Z" fill="white"/>
<path d="M74.1284 59.3919C74.098 58.8805 72.9107 57.7845 72.5697 57.4496C72.3444 57.2305 71.5529 56.5546 71.2911 56.3841C71.1328 56.2867 71.1024 56.2867 71.0597 56.1893C71.0354 56.1162 71.0049 55.9945 70.9258 55.757C70.8953 55.6718 70.8223 55.5195 70.7066 55.3186C70.0247 54.0826 68.0337 51.0078 67.8693 50.8374C67.6683 50.6425 67.236 50.2528 66.615 50.1432C66 50.0397 59.82 49.717 58.6571 49.717C57.4881 49.717 51.3081 50.0519 50.6931 50.1615C50.0721 50.2711 49.6398 50.6547 49.445 50.8495C49.2806 51.02 47.2896 54.1009 46.6137 55.3369C46.498 55.5439 46.425 55.6961 46.3945 55.7753C46.3154 56.0188 46.2849 56.1406 46.2606 56.2076C46.2302 56.2745 46.0718 56.3841 46.011 56.4146C45.9988 56.4267 45.9927 56.4328 45.9927 56.4328C45.8222 56.5485 45.1281 57.0173 44.7567 57.4131C44.1904 58.0098 43.2224 58.9048 43.198 59.4163C43.1736 59.9277 42.9545 60.287 43.0092 61.3099C43.0275 61.803 43.1676 63.3008 43.3015 64.7256C43.4355 66.2234 43.5816 67.6421 43.5938 67.7517C43.6181 67.9709 43.5451 68.2144 43.6425 68.4032C43.7399 68.598 43.9834 68.6528 44.367 68.6467C44.4888 68.6467 45.7735 68.665 47.5453 68.6893C51.7587 68.738 58.6693 68.8294 58.6693 68.8294C58.6693 68.8294 65.7991 68.7258 69.9942 68.665C71.6564 68.6406 72.862 68.6223 72.9716 68.6223C73.3552 68.6223 73.5987 68.5736 73.7022 68.3788C73.7935 68.19 73.7205 67.9465 73.7448 67.7273C73.7631 67.5751 74.0127 65.0118 74.1771 63.1243C74.2502 62.2901 74.305 61.5899 74.3233 61.2794C74.372 60.2626 74.1528 59.8973 74.1284 59.3919ZM71.7477 59.0144C72.2957 59.0144 72.4053 58.9414 72.5149 59.4467C72.588 59.7755 72.588 60.2139 72.5149 60.5062C72.2957 61.5595 70.9562 61.5595 70.0795 61.5595C68.4781 61.5656 67.0899 61.9613 65.8296 59.7085C66.9134 59.3858 68.192 59.4163 69.2818 59.2397C70.1099 59.0875 70.9136 59.0144 71.7477 59.0144ZM49.7616 51.0017L58.6632 50.6912L67.5466 50.9835C67.5466 50.9835 70.7553 55.9762 70.5117 55.9762C70.2804 55.9762 62.2616 55.5256 58.6571 55.6048C55.0587 55.5317 47.0339 55.9945 46.8086 55.9945C46.565 55.9945 49.7616 51.0017 49.7616 51.0017ZM44.8115 59.4711C44.9211 58.9657 45.0307 59.0388 45.5726 59.0327C46.4067 59.0327 47.2104 59.1118 48.0446 59.258C49.1405 59.4345 50.4131 59.398 51.4969 59.7207C50.2365 61.9796 48.8483 61.5839 47.247 61.5839C46.3763 61.5839 45.0307 61.5838 44.8115 60.5305C44.7384 60.2382 44.7384 59.7999 44.8115 59.4711ZM50.5288 67.6116C49.993 67.8065 48.763 67.7638 48.1785 67.7638C47.9654 67.7638 47.7523 67.7638 47.5453 67.7578C47.0338 67.7517 46.5224 67.7395 46.0049 67.7334C45.7735 67.7273 45.5482 67.7273 45.3108 67.7273C44.4401 67.7273 44.294 67.4351 44.4888 66.5644C44.6836 65.9312 44.5619 65.3345 45.2133 65.0909C45.4508 65.0057 46.2423 64.9691 47.2226 64.9752C47.3261 64.9752 47.4357 64.9752 47.5453 64.9813C47.868 64.9874 48.209 64.9935 48.556 65.0118C48.763 65.0179 48.9701 65.03 49.1771 65.0422C49.2562 65.0422 49.3293 65.0483 49.4023 65.0544C49.518 65.0605 49.6276 65.0727 49.7372 65.0787C49.8468 65.0848 49.9564 65.097 50.066 65.1031C50.1756 65.1153 50.2791 65.1274 50.3826 65.1335C50.5409 65.1457 50.6931 65.164 50.8393 65.1822C50.9367 65.1944 51.0341 65.2066 51.1194 65.2188C51.1985 65.231 51.2716 65.2431 51.3446 65.2492C51.3812 65.2553 51.4177 65.2614 51.4481 65.2675C51.4968 65.2736 51.5395 65.2858 51.5821 65.2918C51.6003 65.2979 51.6186 65.2979 51.6308 65.2979C51.6612 65.304 51.6917 65.3101 51.7221 65.3162C51.7708 65.3284 51.8135 65.3345 51.8561 65.3466C51.6125 66.1686 51.3994 67.3194 50.5288 67.6116ZM64.5083 66.4974C64.1978 67.3681 62.9862 67.2524 62.8644 67.2524L54.4742 67.2585C54.3585 67.2585 53.1408 67.3803 52.8303 66.5096C52.5076 65.6328 52.0266 64.2263 51.8561 63.5261C51.6734 62.7894 51.0767 61.523 54.6447 61.6021C56.4835 61.6386 57.8108 61.6386 58.6632 61.6265C59.5217 61.6386 60.849 61.6386 62.6878 61.596C66.2497 61.5108 65.6591 62.7772 65.4764 63.514C65.3059 64.2142 64.8249 65.6267 64.5083 66.4974ZM72.0278 67.703C71.3337 67.703 70.6701 67.7273 69.9942 67.7395C69.7141 67.7456 69.4401 67.7456 69.1601 67.7456C68.5755 67.7456 67.3456 67.7943 66.8159 67.5994C65.9453 67.3072 65.72 66.1564 65.4825 65.3345C65.5434 65.3162 65.6043 65.304 65.6713 65.2918C65.7565 65.2797 65.8539 65.2614 65.9513 65.2431C66.0122 65.237 66.0792 65.2249 66.1462 65.2127C66.1705 65.2127 66.1888 65.2127 66.2131 65.2066C66.2984 65.1944 66.3958 65.1823 66.4871 65.1701H66.5115C66.6028 65.1579 66.7003 65.1457 66.7977 65.1335C67.0351 65.1092 67.2848 65.0848 67.5466 65.0666C67.6196 65.0666 67.6927 65.0605 67.7658 65.0544C68.1615 65.0239 68.5695 64.9996 68.9713 64.9874C69.0748 64.9813 69.1783 64.9752 69.2818 64.9691H69.5071C69.5984 64.9631 69.6837 64.9631 69.775 64.957H69.9881C71.0293 64.9387 71.8756 64.9813 72.1192 65.0666C72.7706 65.3101 72.655 65.9068 72.8498 66.54C73.0446 67.4107 72.8985 67.703 72.0278 67.703Z" fill="white"/>
<path d="M47.5453 69.2985V70.9729C47.5453 71.1312 47.4175 71.2651 47.2592 71.2651L43.5999 71.2712C43.4355 71.2712 43.3076 71.1372 43.3076 70.9789V68.9514C43.6242 69.2437 44.087 69.2558 44.3427 69.2558C44.3488 69.2558 47.5392 69.2985 47.5453 69.2985Z" fill="white"/>
<path d="M74.2382 68.665V70.9483C74.2382 71.1127 74.1103 71.2406 73.9459 71.2406L70.2866 71.2466C70.1283 71.2466 69.9944 71.1127 69.9944 70.9544V69.2739C71.7236 69.2496 72.9474 69.2313 72.9717 69.2313C73.2579 69.2313 73.9216 69.2313 74.2382 68.665Z" fill="white"/>
<path d="M47.2165 66.3755C47.2165 66.9904 46.7233 67.4836 46.1084 67.4836C45.4995 67.4836 45.0002 66.9904 45.0002 66.3755C45.0002 65.7605 45.4934 65.2673 46.1084 65.2673C46.7173 65.2673 47.2165 65.7605 47.2165 66.3755Z" fill="white"/>
<path d="M73.4708 56.0553C73.1055 56.1405 72.728 56.1892 72.3626 56.2501C72.1922 56.2745 71.9425 56.3719 71.772 56.3353C71.6259 56.2988 71.6016 56.177 71.4798 56.1283C71.3519 56.0857 71.1997 56.1466 71.0597 56.1831C71.0353 56.1161 70.9988 55.9944 70.9196 55.7508C70.8892 55.6717 70.8161 55.5134 70.7004 55.3124C71.5468 55.4647 71.3215 54.4113 71.8877 54.0643C72.2713 53.8329 72.8315 54.0156 73.2455 54.0886C73.6534 54.1495 74.1771 54.32 74.2136 54.8254C74.2562 55.3794 74.0553 55.9213 73.4708 56.0553Z" fill="white"/>
<path d="M49.1221 66.3697C49.1221 66.808 48.769 67.1612 48.3306 67.1612C47.8983 67.1612 47.5391 66.808 47.5391 66.3697C47.5391 65.9313 47.8922 65.5781 48.3306 65.5781C48.769 65.5842 49.1282 65.9374 49.1221 66.3697Z" fill="white"/>
<path d="M72.2651 66.3511C72.2651 66.9599 71.7719 67.4592 71.157 67.4592C70.5481 67.4592 70.0488 66.966 70.0488 66.3511C70.0488 65.7422 70.5481 65.2429 71.157 65.2429C71.7719 65.2429 72.2651 65.7361 72.2651 66.3511Z" fill="white"/>
<path d="M69.6106 66.3513C69.6106 66.7897 69.2575 67.1429 68.8191 67.1429C68.3868 67.1429 68.0276 66.7897 68.0276 66.3513C68.0276 65.9129 68.3807 65.5598 68.8191 65.5598C69.2575 65.5659 69.6106 65.919 69.6106 66.3513Z" fill="white"/>
<g clip-path="url(#clip0_614_2161)">
<path d="M70.1656 52.4878C70.5255 52.4878 70.8088 52.7752 70.8088 53.1409C70.8088 53.5067 70.5255 53.794 70.1656 53.794C69.8057 53.794 69.5198 53.5067 69.5198 53.1409C69.5223 52.7752 69.8057 52.4878 70.1656 52.4878Z" fill="#C2E3F7"/>
<path d="M70.8115 42.6909C71.1714 42.6909 71.4547 42.9783 71.4547 43.344C71.4547 43.7098 71.1714 43.9972 70.8115 43.9972C70.4515 43.9972 70.1682 43.7098 70.1682 43.344C70.1682 42.9783 70.449 42.6909 70.8115 42.6909Z" fill="#C2E3F7"/>
<path d="M60.1901 44.3105C60.7313 44.3105 61.1703 44.7547 61.1703 45.3033C61.1703 45.8519 60.7313 46.2961 60.1901 46.2961C59.649 46.2961 59.21 45.8519 59.21 45.3033C59.21 44.7547 59.649 44.3105 60.1901 44.3105Z" fill="#C2E3F7"/>
<path d="M69.3921 47.0798C70.0099 47.7068 70.8624 48.0725 71.789 48.0725C70.8599 48.0725 70.0099 48.4644 69.3921 49.0653C68.7744 49.6923 68.4119 50.5544 68.4119 51.4949C68.4119 49.6139 66.8906 48.0725 65.0349 48.0725C65.964 48.0725 66.814 47.6807 67.4318 47.0798C68.0495 46.4528 68.4119 45.5907 68.4119 44.6501C68.4145 45.6168 68.7744 46.4528 69.3921 47.0798Z" fill="#C2E3F7"/>
<path d="M64.0062 49.6139C64.4707 50.0842 65.114 50.3715 65.8363 50.3715C65.114 50.3715 64.4707 50.6589 64.0062 51.1292C63.5416 51.5994 63.2583 52.2526 63.2583 52.9841C63.2583 51.5472 62.0994 50.3715 60.6802 50.3715C61.4026 50.3715 62.0458 50.0842 62.5104 49.6139C62.9749 49.1437 63.2583 48.4905 63.2583 47.759C63.2583 48.4905 63.5416 49.1437 64.0062 49.6139Z" fill="black"/>
<path d="M66.7374 42.2467C67.2019 42.717 67.8452 43.0044 68.5675 43.0044C67.8452 43.0044 67.2019 43.2917 66.7374 43.762C66.2728 44.2322 65.9895 44.8854 65.9895 45.6169C65.9895 44.18 64.828 43.0044 63.4114 43.0044C64.1338 43.0044 64.777 42.717 65.2416 42.2467C65.7061 41.7765 65.9895 41.1233 65.9895 40.3918C65.9895 41.1233 66.2728 41.7765 66.7374 42.2467Z" fill="black"/>
<path d="M68.4144 51.8346C68.2332 51.8346 68.0801 51.6778 68.0801 51.495C68.0801 49.7968 66.7144 48.3861 65.0119 48.3861C64.8306 48.3861 64.6775 48.2293 64.6775 48.0464C64.6775 47.8636 64.8332 47.7068 65.0119 47.7068C65.8364 47.7068 66.6098 47.3933 67.1764 46.7924C67.7431 46.2177 68.0801 45.4339 68.0801 44.5979C68.0801 44.4151 68.2358 44.2583 68.4144 44.2583C68.5957 44.2583 68.7488 44.4151 68.7488 44.5979C68.7488 45.4339 69.0577 46.2177 69.6499 46.7924C70.2165 47.3672 70.99 47.7068 71.8144 47.7068C71.9957 47.7068 72.1488 47.8636 72.1488 48.0464C72.1488 48.2293 71.9931 48.3861 71.8144 48.3861C70.99 48.3861 70.2165 48.6996 69.6499 49.3005C69.0832 49.8752 68.7488 50.659 68.7488 51.495C68.7233 51.704 68.5676 51.8346 68.4144 51.8346ZM66.5306 48.0987C67.3551 48.4644 68.0264 49.1437 68.3864 49.9797C68.5676 49.5617 68.8254 49.196 69.1598 48.8563C69.4942 48.5167 69.8566 48.2554 70.2676 48.0726C69.8541 47.8897 69.4942 47.6284 69.1598 47.2888C68.8254 46.9492 68.5676 46.5834 68.3864 46.1654C68.2051 46.5834 67.9473 46.9492 67.6129 47.2888C67.3041 47.6284 66.9442 47.8897 66.5306 48.0987Z" fill="white"/>
<path d="M63.2583 53.3237C63.0771 53.3237 62.9239 53.167 62.9239 52.9841C62.9239 51.7301 61.9182 50.6851 60.6547 50.6851C60.4735 50.6851 60.3203 50.5283 60.3203 50.3455C60.3203 50.1626 60.476 50.0058 60.6547 50.0058C61.2469 50.0058 61.8136 49.7707 62.2526 49.3266C62.6916 48.8824 62.9239 48.3077 62.9239 47.7068C62.9239 47.5239 63.0796 47.3672 63.2583 47.3672C63.437 47.3672 63.5672 47.5762 63.5672 47.7591C63.5672 48.3599 63.7995 48.9347 64.2385 49.3788C64.6775 49.823 65.2442 50.0581 65.8364 50.0581C66.0176 50.0581 66.1708 50.2148 66.1708 50.3977C66.1708 50.5806 66.0151 50.7373 65.8364 50.7373C65.2442 50.7373 64.6775 50.9725 64.2385 51.4166C63.7995 51.8085 63.5672 52.3832 63.5672 52.9841C63.5672 53.167 63.4115 53.3237 63.2583 53.3237ZM61.9948 50.3716C62.5359 50.659 62.975 51.1031 63.2328 51.6256C63.3604 51.3643 63.5416 51.1031 63.7484 50.8941C63.9552 50.6851 64.213 50.5022 64.4708 50.3716C64.213 50.241 63.9552 50.0581 63.7484 49.8491C63.5416 49.6401 63.3604 49.3788 63.2328 49.1176C63.1026 49.3788 62.9239 49.6401 62.7172 49.8491C62.5104 50.0581 62.2526 50.241 61.9948 50.3716Z" fill="white"/>
<path d="M65.9895 45.9565C65.8083 45.9565 65.6551 45.7998 65.6551 45.6169C65.6551 44.3629 64.6494 43.3179 63.3859 43.3179C63.2047 43.3179 63.0515 43.1611 63.0515 42.9783C63.0515 42.7954 63.2072 42.6386 63.3859 42.6386C63.9781 42.6386 64.5448 42.4035 64.9838 41.9594C65.4228 41.5153 65.6551 40.9405 65.6551 40.3396C65.6551 40.1568 65.8108 40 65.9895 40C66.1707 40 66.3239 40.1568 66.3239 40.3396C66.3239 40.9405 66.5562 41.5153 66.9952 41.9594C67.4343 42.4035 68.0009 42.6386 68.5931 42.6386C68.7744 42.6386 68.9275 42.7954 68.9275 42.9783C68.9275 43.1611 68.7718 43.3179 68.5931 43.3179C68.0009 43.3179 67.4343 43.553 66.9952 43.9971C66.5562 44.4413 66.3239 45.016 66.3239 45.6169C66.2984 45.8259 66.1707 45.9565 65.9895 45.9565ZM64.726 43.0305C65.2671 43.3179 65.7062 43.762 65.964 44.2845C66.0916 44.0233 66.2728 43.762 66.4796 43.553C66.6864 43.344 66.9442 43.1611 67.202 43.0305C66.9442 42.8999 66.6864 42.717 66.4796 42.508C66.2728 42.299 66.0916 42.0378 65.964 41.7765C65.8364 42.0378 65.6551 42.299 65.4484 42.508C65.2416 42.717 65.0119 42.8999 64.726 43.0305Z" fill="white"/>
<path d="M60.1902 46.6096C59.4678 46.6096 58.9011 46.0348 58.9011 45.3033C58.9011 44.5718 59.4678 43.9971 60.1902 43.9971C60.9125 43.9971 61.4792 44.5718 61.4792 45.3033C61.4792 46.0348 60.887 46.6096 60.1902 46.6096ZM60.1902 44.6502C59.8303 44.6502 59.5469 44.9376 59.5469 45.3033C59.5469 45.6691 59.8303 45.9565 60.1902 45.9565C60.5501 45.9565 60.8334 45.6691 60.8334 45.3033C60.8334 44.9376 60.5501 44.6502 60.1902 44.6502Z" fill="white"/>
<path d="M70.1655 54.1337C69.6243 54.1337 69.1853 53.6896 69.1853 53.1409C69.1853 52.5923 69.6243 52.1482 70.1655 52.1482C70.7066 52.1482 71.1457 52.5923 71.1457 53.1409C71.1457 53.6896 70.7066 54.1337 70.1655 54.1337ZM70.1655 52.8274C69.9843 52.8274 69.8311 52.9842 69.8311 53.1671C69.8311 53.3499 69.9868 53.5067 70.1655 53.5067C70.3467 53.5067 70.4999 53.3499 70.4999 53.1671C70.5024 52.9581 70.3467 52.8274 70.1655 52.8274Z" fill="white"/>
<path d="M70.8115 44.3368C70.2703 44.3368 69.8313 43.8927 69.8313 43.3441C69.8313 42.7954 70.2703 42.3513 70.8115 42.3513C71.3526 42.3513 71.7917 42.7954 71.7917 43.3441C71.7917 43.8927 71.3526 44.3368 70.8115 44.3368ZM70.8115 43.0306C70.6303 43.0306 70.4771 43.1873 70.4771 43.3702C70.4771 43.5531 70.6328 43.7098 70.8115 43.7098C70.9902 43.7098 71.1459 43.5531 71.1459 43.3702C71.1459 43.1873 70.9927 43.0306 70.8115 43.0306Z" fill="white"/>
</g>
<path d="M30.2592 28.4671L34.1186 32.543C33.1885 33.4228 32.2974 34.3581 31.4697 35.3239C31.4504 35.3075 27.2333 31.6875 27.2101 31.669C28.1624 30.5564 29.189 29.4795 30.2592 28.4671ZM34.0218 32.5402L30.2556 28.5629C29.2208 29.5437 28.2289 30.586 27.3043 31.6608L31.4615 35.2278C32.2635 34.2959 33.125 33.3923 34.0218 32.5402ZM33.6216 25.7427C34.8009 24.8639 36.0173 24.0366 37.2376 23.2846L40.1887 28.0599C39.1062 28.7278 38.0238 29.4629 36.9737 30.2464L33.6216 25.7427ZM37.2143 23.3779C36.0351 24.1083 34.858 24.9081 33.7151 25.7562L36.9852 30.1509C38.0029 29.3941 39.049 28.6837 40.0934 28.0365L37.2143 23.3779ZM24.5907 35.0669L29.2093 38.2572C28.4842 39.3049 27.8082 40.4045 27.1998 41.5248L22.2716 38.8392C22.9738 37.5455 23.7534 36.2767 24.5907 35.0669ZM29.1149 38.2733L24.6079 35.1604C23.7993 36.3334 23.0445 37.5613 22.3634 38.8101L27.1726 41.4311C27.7622 40.3498 28.4164 39.2882 29.1149 38.2733ZM40.9587 21.2161C42.2852 20.558 43.6464 19.9671 45.0054 19.4573C45.0147 19.4813 46.969 24.6836 46.9801 24.7116C45.795 25.1551 44.6088 25.6708 43.4508 26.2446L40.9587 21.2161ZM44.9655 19.5452C43.6503 20.0404 42.3331 20.6127 41.0478 21.2472L43.48 26.1554C44.5998 25.6023 45.7479 25.1033 46.8912 24.6725L44.9655 19.5452ZM20.4194 42.7105C20.4439 42.7201 25.5752 44.8517 25.6026 44.8623C25.1133 46.0393 24.6823 47.2556 24.3212 48.4787C24.2967 48.4711 18.9702 46.8898 18.9408 46.8811C19.3584 45.4716 19.8549 44.0684 20.4194 42.7105ZM25.5146 44.8994L20.4556 42.7995C19.912 44.1145 19.4306 45.4727 19.0241 46.837L24.2751 48.3953C24.627 47.2135 25.0441 46.0374 25.5146 44.8994ZM49.0998 18.1637C50.5341 17.7925 51.9979 17.4992 53.4544 17.2918L54.2518 22.8474C53.0008 23.024 51.7409 23.2765 50.5057 23.5979L49.0998 18.1637ZM53.3969 17.3693C51.988 17.5721 50.5709 17.8558 49.1825 18.2125L50.5545 23.5152C51.7487 23.2075 52.9669 22.9637 54.1762 22.7899L53.3969 17.3693ZM17.9388 51.0532C17.9644 51.0579 23.4261 52.0742 23.4566 52.08C23.2223 53.3334 23.0535 54.6133 22.9532 55.8863L17.3601 55.4389C17.4747 53.9734 17.6696 52.4975 17.9388 51.0532ZM23.377 52.1342L17.992 51.1318C17.733 52.5299 17.5443 53.9576 17.431 55.3776L22.8909 55.8143C22.9901 54.5829 23.1537 53.3463 23.377 52.1342ZM57.7507 16.9236C59.2274 16.8799 60.7226 16.9208 62.1976 17.0462C62.1949 17.0718 61.7329 22.608 61.7301 22.6376C60.4642 22.5299 59.1825 22.495 57.9176 22.5328C57.9163 22.507 57.7518 16.9533 57.7507 16.9236ZM62.1247 17.1074C60.6979 16.9884 59.2502 16.9488 57.8201 16.9888L57.9818 22.4623C59.2041 22.4283 60.4443 22.4621 61.6678 22.5636L62.1247 17.1074ZM17.242 59.7277L22.8522 59.5911C22.8823 60.8677 22.9823 62.1552 23.1462 63.4207L17.5813 64.1401C17.3911 62.6819 17.2777 61.1973 17.242 59.7277ZM22.7859 59.6614L17.3114 59.7949C17.3483 61.2171 17.4581 62.6532 17.6398 64.0655L23.0716 63.3642C22.9135 62.1394 22.8172 60.8946 22.7859 59.6614ZM66.4682 17.6474C67.9101 17.9331 69.3566 18.3029 70.7694 18.749C70.7618 18.7735 69.0939 24.0721 69.0852 24.1016C67.8675 23.7174 66.6203 23.3976 65.378 23.1522C65.3836 23.1276 66.4624 17.6779 66.4682 17.6474ZM70.6851 18.7941C69.3173 18.3651 67.917 18.0055 66.5213 17.728L65.4576 23.1C66.6575 23.3393 67.8634 23.648 69.041 24.0183L70.6851 18.7941ZM18.3541 68.3619L23.8142 67.066C24.1084 68.3085 24.4728 69.5479 24.8976 70.7496C24.8736 70.7588 19.6328 72.6018 19.6048 72.6109C19.114 71.2235 18.6934 69.7945 18.3541 68.3619ZM23.7636 67.1466L18.4358 68.4116C18.7665 69.7985 19.1735 71.1806 19.6448 72.525L24.8107 70.7086C24.4026 69.545 24.0509 68.3474 23.7636 67.1466ZM74.7925 20.2581C76.1342 20.8426 77.4658 21.5079 78.7492 22.2361C78.7357 22.2585 76.0026 27.0941 75.988 27.1194C74.8712 26.4859 73.7142 25.9075 72.5493 25.4002C72.5608 25.3778 74.7808 20.2865 74.7925 20.2581ZM78.6575 22.2612C77.414 21.5588 76.1253 20.9145 74.8266 20.3471L72.6383 25.3661C73.764 25.8585 74.881 26.4169 75.9629 27.0277L78.6575 22.2612ZM21.242 76.581L26.3104 74.1734C26.8572 75.325 27.4708 76.4598 28.139 77.5486L23.3539 80.4773C22.5825 79.2205 21.8719 77.91 21.242 76.581ZM26.2773 74.2625L21.3311 76.6121C21.9435 77.8981 22.6305 79.1655 23.3743 80.383L28.0437 77.5251C27.4012 76.4717 26.8064 75.375 26.2773 74.2625ZM82.3659 24.53C83.5601 25.3734 84.7276 26.2883 85.8374 27.2519L82.1624 31.4906C81.1926 30.6485 80.1714 29.8475 79.1275 29.1102C79.1419 29.0908 82.3484 24.5542 82.3659 24.53ZM25.7833 84.0137L30.2356 80.6009C31.026 81.6337 31.8835 82.6358 32.7841 83.5838L28.7245 87.4566C27.6846 86.3633 26.6949 85.2052 25.7833 84.0137ZM30.2221 80.6945L25.8769 84.0252C26.7629 85.1775 27.721 86.3001 28.7262 87.3587L32.6873 83.5791C31.8185 82.6627 30.9888 81.692 30.2221 80.6945ZM84.8526 34.0641L88.9285 30.2085C89.9376 31.2712 90.9026 32.395 91.7994 33.5506C91.7792 33.5658 87.3932 36.9756 87.3699 36.9937C86.5839 35.9817 85.7378 34.9957 84.8526 34.0641ZM35.4768 86.1396C36.4478 86.9708 37.4715 87.758 38.5217 88.4777C38.5073 88.4991 35.36 93.0759 35.3434 93.1011C34.1321 92.2701 32.9516 91.3618 31.8317 90.4038L35.4768 86.1396ZM38.4272 88.4958C37.415 87.798 36.4242 87.0374 35.4841 86.2347L31.9269 90.3965C33.012 91.3219 34.1548 92.2005 35.3253 93.0067L38.4272 88.4958ZM89.5082 40.0413C89.5303 40.028 94.2302 37.0682 94.2554 37.0521C95.0409 38.2974 95.7688 39.5916 96.419 40.9014C96.396 40.9136 91.4217 43.3861 91.3946 43.3982C90.8297 42.258 90.1942 41.1286 89.5082 40.0413ZM41.6776 90.4125C42.7981 91.0215 43.9636 91.5763 45.1429 92.0623L43.0034 97.2488C41.6422 96.6885 40.2971 96.0476 39.0051 95.3448C39.0165 95.3224 41.664 90.4389 41.6776 90.4125ZM45.0539 92.0984C43.9148 91.6264 42.7883 91.0904 41.7047 90.5043L39.0948 95.3177C40.3479 95.9956 41.6492 96.6145 42.9653 97.1597L45.0539 92.0984ZM92.8743 46.8012L98.1294 44.835C98.649 46.2202 99.0964 47.6411 99.4618 49.0606L94.0276 50.4571C93.7123 49.2308 93.3239 48.0005 92.8743 46.8012ZM48.6356 93.2935C49.8579 93.6561 51.1145 93.9553 52.3691 94.1853C52.3644 94.2109 51.3605 99.6745 51.3547 99.705C49.9063 99.4389 48.4581 99.0937 47.0494 98.6765C47.057 98.652 48.6269 93.3229 48.6356 93.2935ZM52.2895 94.2394C51.0763 94.0146 49.8619 93.7254 48.6798 93.3768L47.1338 98.6294C48.4974 99.0296 49.8984 99.3655 51.2995 99.6243L52.2895 94.2394ZM94.7518 54.0762C94.7776 54.073 100.277 53.2846 100.306 53.2804C100.518 54.7471 100.648 56.2371 100.693 57.709L95.0841 57.8812C95.0467 56.6152 94.9346 55.3354 94.7518 54.0762ZM56.0427 94.666C57.3137 94.7669 58.6053 94.8001 59.883 94.7657L60.0311 100.375C58.5604 100.415 57.0731 100.376 55.6077 100.261L56.0427 94.666ZM59.8178 94.835C58.5837 94.8667 57.3356 94.8327 56.1059 94.739L55.6816 100.199C57.0997 100.309 58.5396 100.346 59.9627 100.311L59.8178 94.835ZM94.9907 61.5575L100.583 62.0208C100.464 63.493 100.257 64.9746 99.9686 66.4252C99.943 66.4206 94.4929 65.3412 94.4624 65.3354C94.7113 64.0894 94.8877 62.8195 94.9907 61.5575ZM100.51 62.082L95.052 61.6305C94.9502 62.849 94.7789 64.0774 94.543 65.2823L99.9154 66.3466C100.192 64.9411 100.392 63.5068 100.51 62.082ZM63.5768 94.4765C64.8432 94.3122 66.1136 94.0768 67.352 93.7792C67.3583 93.8041 68.6543 99.2075 68.6605 99.2364C67.2309 99.5801 65.7677 99.8496 64.3077 100.039C64.3054 100.014 63.581 94.5053 63.5768 94.4765ZM67.3023 93.8609C66.1047 94.1468 64.8772 94.3725 63.6523 94.534L64.3661 99.9646C65.7776 99.7787 67.196 99.5168 68.5788 99.1867L67.3023 93.8609ZM93.5502 68.9067C93.5747 68.9143 98.8739 70.5888 98.9013 70.5975C98.4624 71.9925 97.9384 73.3871 97.3442 74.7441C97.3208 74.7335 92.2296 72.5062 92.2023 72.4936C92.7173 71.3173 93.1718 70.1116 93.5502 68.9067ZM98.816 70.6416L93.5933 68.991C93.224 70.1546 92.7864 71.3212 92.2903 72.4584L97.3081 74.6551C97.8823 73.34 98.3892 71.9904 98.816 70.6416ZM70.9036 92.7295C72.107 92.3053 73.2984 91.8116 74.4489 91.2603C74.4601 91.2844 76.8558 96.2983 76.8689 96.3244C75.542 96.9597 74.1665 97.5294 72.7774 98.0196C72.7691 97.9966 70.9137 92.7585 70.9036 92.7295ZM74.4178 91.3514C73.3054 91.882 72.153 92.3581 70.9905 92.7705L72.8193 97.9337C74.1616 97.4571 75.4941 96.905 76.7797 96.2932L74.4178 91.3514ZM90.5434 75.8145C90.5667 75.827 95.4067 78.5557 95.433 78.5713C94.7269 79.8282 93.9408 81.08 93.0974 82.2916C93.0761 82.2772 88.5124 79.1063 88.4871 79.0897C89.2306 78.0207 89.9225 76.9196 90.5434 75.8145ZM95.3413 78.5964L90.5695 75.9072C89.9675 76.9733 89.2993 78.0385 88.5815 79.0736L93.0802 82.1982C93.8959 81.0224 94.6551 79.8114 95.3413 78.5964ZM77.6999 89.4921C78.7853 88.8273 79.8478 88.0936 80.8592 87.3139L84.2832 91.7613C83.1171 92.6602 81.8923 93.5051 80.6399 94.2721C80.6266 94.252 77.716 89.5173 77.6999 89.4921ZM80.8468 87.4085C79.8688 88.1604 78.8415 88.8685 77.7932 89.5136L80.6623 94.1798C81.8735 93.4344 83.059 92.6171 84.1886 91.7488L80.8468 87.4085ZM86.2143 82.0751C86.2337 82.0914 90.508 85.6439 90.5302 85.6633C89.6199 86.7593 88.6405 87.8474 87.6167 88.8967C87.5984 88.8794 83.6179 85.0009 83.5967 84.9805C84.5177 84.0361 85.3981 83.059 86.2143 82.0751ZM90.435 85.6725L86.2226 82.1712C85.433 83.1203 84.5812 84.0646 83.6916 84.9792L87.6154 88.8017C88.6056 87.7841 89.5534 86.7317 90.435 85.6725Z" fill="#1FBFAD"/>
<path d="M38.9391 37.7022C39.8457 36.9064 40.7886 36.1572 41.7325 35.4765L42.9472 37.1654C39.3084 39.6873 36.4041 43.2739 34.5373 47.2623L32.651 46.3804C34.1839 43.1206 36.2986 40.2 38.9391 37.7022ZM44.1108 33.9078C46.2071 32.6483 48.393 31.6552 50.61 30.9567L51.2324 32.9436C49.1726 33.5936 47.1366 34.5182 45.1827 35.6932L44.1108 33.9078ZM32.076 47.6902L34.0038 48.477C33.1641 50.5252 32.5816 52.6776 32.2706 54.8759L30.2072 54.5898C30.543 52.2195 31.1711 49.8986 32.076 47.6902ZM51.9885 30.5595C56.7095 29.333 61.4836 29.3913 66.1778 30.7309L65.6015 32.7346C61.2686 31.4988 56.8627 31.4453 52.5077 32.5764L51.9885 30.5595ZM29.9478 57.4417L32.0291 57.5218C31.8455 61.9708 32.7837 66.4177 34.7394 70.3845L32.8702 71.3096C30.7627 67.0331 29.7512 62.2367 29.9478 57.4417ZM68.8898 31.6576C71.083 32.5347 73.1856 33.6924 75.1391 35.0992L73.9187 36.7899C72.1024 35.4811 70.1492 34.4058 68.113 33.5924L68.8898 31.6576ZM33.5373 72.577L35.3576 71.5593C36.4408 73.5038 37.777 75.3151 39.325 76.9434L37.817 78.3853C36.1495 76.6328 34.7063 74.6757 33.5373 72.577ZM76.2775 35.9612C80.0027 38.9179 83.0597 42.8018 85.0057 47.1038L83.1084 47.9706C81.2967 43.9679 78.4474 40.3466 74.9774 37.5943L76.2775 35.9612ZM41.2483 78.7762C44.605 81.6705 48.672 83.6903 53.0139 84.6166L52.5737 86.6536C47.8914 85.6538 43.5034 83.4766 39.8843 80.354L41.2483 78.7762ZM84.0871 50.4384L86.0602 49.7642C86.8367 52.051 87.3103 54.4081 87.4711 56.7718L85.3922 56.9171C85.2451 54.7334 84.805 52.5529 84.0871 50.4384ZM54.3181 84.8626C56.5056 85.2165 58.7338 85.2985 60.9432 85.1051L61.1193 87.1804C58.7387 87.3891 56.337 87.3015 53.9795 86.9193L54.3181 84.8626ZM85.4462 58.2397L87.5298 58.2057C87.5952 62.967 86.4099 67.5919 84.0044 71.9491L82.1811 70.9457C84.4086 66.9094 85.5073 62.6346 85.4462 58.2397ZM63.5763 84.7423C67.9392 83.9181 72.062 81.9938 75.5029 79.1768L76.8212 80.7871C73.1118 83.8252 68.664 85.9008 63.9588 86.7883L63.5763 84.7423ZM80.7859 73.2225L82.5112 74.386C81.2177 76.2713 79.6726 78.2056 77.9055 79.8521L76.5109 78.3082C78.1537 76.7696 79.5847 74.9703 80.7859 73.2225Z" fill="#011C31"/>
<path d="M79.3858 80.4088C77.4115 82.2726 75.2081 83.8554 72.8335 85.1122L74.0652 87.4438C79.6005 84.6398 84.3134 79.6262 87.2769 74.3811L92.5669 77.4198C93.9944 74.9411 95.1405 72.3488 95.9741 69.7163L90.1396 67.8794C91.5187 63.4966 91.8916 58.9817 91.2441 54.4465L88.6319 54.8249C89.5478 61.2354 88.6863 70.8762 79.3858 80.4088ZM80.4957 38.2811C84.6322 42.654 87.3776 47.9628 88.4369 53.6361L91.0314 53.1471C88.8344 40.3588 77.6038 28.9951 64.875 26.64L64.36 29.2294C70.3621 30.4121 76.0925 33.6263 80.4957 38.2811ZM38.3782 37.0579C47.9075 28.7437 57.1172 28.0977 63.1675 29.0208L63.5709 26.4116C61.8492 26.1482 60.1241 26.0364 58.4028 26.0697L58.2911 19.9455C55.4738 20.003 52.6459 20.3944 49.8851 21.1101L51.4103 27.033C43.056 29.1593 34.556 35.1786 30.3579 43.1981L32.674 44.4577C34.1695 41.718 36.0885 39.2277 38.3782 37.0579ZM38.0881 80.1748L36.2478 82.0699C45.68 91.4548 60.9537 93.9119 72.8883 88.0383L71.7522 85.6586C60.5266 91.0294 46.9987 88.8265 38.0881 80.1748ZM30.8777 85.3367L35.3213 81.1334L35.3241 81.1364C35.618 80.8546 36.2647 80.239 36.5563 79.9651L36.5544 79.963L37.2358 79.3126C28.6621 70.296 26.6032 56.7058 32.1182 45.535L29.7517 44.3714C24.8769 54.0474 25.3622 66.1926 30.9791 75.4256L25.7345 78.5718C27.1848 80.9936 28.9161 83.2712 30.8777 85.3367Z" fill="#4A5251"/>
<path d="M41.5184 40.4604L41.9563 40.9233C41.6589 41.2046 41.3652 41.498 41.0824 41.7946L40.6212 41.3537C40.9122 41.0494 41.2129 40.7494 41.5184 40.4604ZM42.4923 39.6401C42.8211 39.3737 43.1556 39.1135 43.4889 38.8661L43.8713 39.3757C43.5451 39.6184 43.2165 39.8748 42.8948 40.1345L42.4923 39.6401ZM39.7707 42.2902L40.2532 42.7071C39.9859 43.0182 39.7223 43.3393 39.4716 43.6618L38.9698 43.2691C39.2266 42.9388 39.4963 42.61 39.7707 42.2902ZM44.5165 38.1309C44.8644 37.8929 45.2202 37.6612 45.5748 37.4403L45.9139 37.9792C45.5674 38.1944 45.2197 38.4224 44.8787 38.6557L44.5165 38.1309ZM38.2185 44.2903L38.7397 44.6569C38.5055 44.9929 38.2761 45.34 38.0605 45.6875L37.5219 45.347C37.7446 44.9908 37.9792 44.635 38.2185 44.2903ZM46.6618 36.7963C47.0299 36.5898 47.4047 36.3904 47.7784 36.2019L48.0684 36.7698C47.7037 36.9536 47.3359 37.1483 46.9768 37.3502L46.6618 36.7963ZM36.88 46.4413L37.4351 46.7546C37.2371 47.1126 37.0448 47.4827 36.8655 47.8503L36.2959 47.5663C36.4795 47.187 36.6769 46.8081 36.88 46.4413ZM48.9226 35.6609C49.3088 35.4896 49.7027 35.3266 50.0924 35.1753L50.3264 35.7671C49.9457 35.9137 49.5618 36.0731 49.1846 36.2397L48.9226 35.6609ZM35.7697 48.7161L36.3538 48.9708C36.1941 49.347 36.0401 49.7333 35.9 50.1181L35.3054 49.8927C35.4486 49.4991 35.6058 49.102 35.7697 48.7161ZM51.2867 34.7501C51.6878 34.619 52.0967 34.4961 52.5024 34.386L52.6755 34.9985C52.2808 35.106 51.8818 35.2252 51.4916 35.3537L51.2867 34.7501ZM34.899 51.0941L35.5042 51.2881C35.3828 51.6805 35.2691 52.081 35.1694 52.4781L34.5546 52.3145C34.6585 51.9076 34.7734 51.4962 34.899 51.0941ZM53.7356 34.0849C54.1477 33.9958 54.5685 33.918 54.9842 33.8508L55.0916 34.4769C54.6869 34.5415 54.278 34.6178 53.8758 34.7052L53.7356 34.0849ZM34.2723 53.5518L34.8937 53.684C34.8127 54.0866 34.7414 54.4975 34.6811 54.9038L34.0541 54.8022C34.1156 54.387 34.189 53.9663 34.2723 53.5518ZM56.2461 33.6856C56.6672 33.6424 57.094 33.6093 57.5155 33.589L57.5544 34.2217C57.1438 34.2414 56.7289 34.2729 56.3197 34.3165L56.2461 33.6856ZM33.898 56.0657L34.5287 56.1347C34.4891 56.5447 34.4584 56.96 34.4396 57.3717L33.8063 57.3343C33.8253 56.9127 33.8563 56.4855 33.898 56.0657ZM58.7884 33.5609C59.2105 33.5633 59.6402 33.5779 60.0628 33.6032L60.0323 34.2355C59.6216 34.2107 59.2038 34.1965 58.7926 34.1934L58.7884 33.5609ZM33.7778 58.609L34.4118 58.6147C34.4128 59.0271 34.4256 59.4458 34.4465 59.8569L33.8137 59.883C33.7921 59.461 33.7796 59.0323 33.7778 58.609ZM61.3346 33.7158C61.7566 33.7648 62.1833 33.8269 62.6009 33.8976L62.5013 34.5217C62.0945 34.4523 61.6807 34.3917 61.2685 34.3449L61.3346 33.7158ZM33.9151 61.1551L34.5446 61.0972C34.5882 61.5081 34.6417 61.9232 34.7042 62.3318L34.078 62.4215C34.0148 62.002 33.9585 61.5759 33.9151 61.1551ZM63.855 34.1474C64.2681 34.2417 64.686 34.3471 65.0947 34.4631L64.9299 35.0731C64.532 34.9604 64.125 34.8564 63.7227 34.7654L63.855 34.1474ZM34.3086 63.6783L34.9295 63.5566C35.0129 63.9609 35.1092 64.3686 35.2135 64.7706L34.6008 64.9232C34.4917 64.5122 34.3938 64.0925 34.3086 63.6783ZM66.3151 34.8436C66.7165 34.9801 67.1205 35.1297 67.5154 35.2858L67.2878 35.8738C66.9036 35.721 66.5094 35.5758 66.1179 35.4415L66.3151 34.8436ZM34.9537 66.1534L35.5582 65.9698C35.6824 66.3646 35.8185 66.7617 35.9638 67.1502L35.3695 67.365C35.2206 66.9664 35.0808 66.5572 34.9537 66.1534ZM68.6936 35.7898C69.0792 35.9664 69.4666 36.155 69.8438 36.3512L69.5572 36.9134C69.1888 36.7225 68.8122 36.5372 68.4355 36.3658L68.6936 35.7898ZM35.8473 68.5548L36.4282 68.3099C36.5924 68.6901 36.7685 69.0728 36.9517 69.4448L36.384 69.7198C36.196 69.3368 36.0152 68.9451 35.8473 68.5548ZM70.964 36.9702C71.329 37.1838 71.6957 37.4094 72.0534 37.6416L71.713 38.1712C71.3641 37.9442 71.0062 37.7239 70.65 37.5156L70.964 36.9702ZM36.9788 70.8552L37.5313 70.5518C37.7326 70.9125 37.9467 71.2747 38.165 71.627L37.6288 71.9577C37.4037 71.5962 37.1848 71.225 36.9788 70.8552ZM73.1099 38.3654C73.4533 38.613 73.7975 38.8735 74.1306 39.1385L73.7404 39.6338C73.4151 39.3749 73.0787 39.1206 72.7441 38.8783L73.1099 38.3654ZM38.337 73.0265L38.855 72.6685C39.0914 73.0076 39.3408 73.3461 39.5943 73.6749L39.0955 74.0594C38.8333 73.7214 38.5782 73.3747 38.337 73.0265ZM75.1147 39.96C75.4347 40.2395 75.7524 40.5308 76.0581 40.8257L75.6223 41.2807C75.3233 40.993 75.0123 40.7088 74.7002 40.4356L75.1147 39.96ZM39.9045 75.0523L40.384 74.6434C40.6662 74.9721 40.9594 75.2983 41.2588 75.6128L40.8016 76.0453C40.4944 75.7226 40.1925 75.3892 39.9045 75.0523ZM76.5038 42.168L76.961 41.7356C77.2536 42.0449 77.543 42.3649 77.8194 42.6856L77.3419 43.0966C77.0722 42.7811 76.7906 42.4692 76.5038 42.168ZM42.1414 76.4972C42.4414 76.784 42.7524 77.0661 43.0656 77.3364L42.655 77.8141C42.333 77.5365 42.0143 77.2462 41.7065 76.9532L42.1414 76.4972ZM78.1376 44.0613L78.6334 43.6737C78.8957 44.0078 79.1529 44.3525 79.399 44.6999L78.8839 45.063C78.6445 44.7248 78.3931 44.3881 78.1376 44.0613ZM44.0315 78.1286C44.3579 78.3825 44.6964 78.6329 45.0351 78.8714L44.6761 79.3895C44.3276 79.1447 43.9814 78.8881 43.6462 78.6269L44.0315 78.1286ZM79.5859 46.0989L80.1173 45.7611C80.3474 46.1198 80.5704 46.4872 80.7824 46.8552L80.2337 47.1666C80.0284 46.8078 79.8092 46.4484 79.5859 46.0989ZM46.0744 79.5629C46.4254 79.784 46.7864 79.9975 47.1467 80.2L46.8425 80.7517C46.4714 80.5438 46.1016 80.3231 45.7409 80.0977L46.0744 79.5629ZM80.8323 48.2634L81.3953 47.9793C81.5902 48.3576 81.7771 48.7456 81.9521 49.1311L81.3758 49.3871C81.2046 49.0116 81.0215 48.6336 80.8323 48.2634ZM48.2509 80.7817C48.6215 80.9648 49.0011 81.1413 49.379 81.3058L49.1327 81.8862C48.7449 81.7174 48.3554 81.5366 47.9741 81.3482L48.2509 80.7817ZM81.8613 50.5366L82.4498 50.3098C82.6058 50.7056 82.7536 51.1091 82.8887 51.5112L82.2889 51.7078C82.1567 51.3148 82.0126 50.9213 81.8613 50.5366ZM50.5322 81.7732C50.9185 81.9181 51.3139 82.0565 51.7075 82.1809L51.5221 82.7851C51.1186 82.6564 50.7124 82.5148 50.3173 82.3665L50.5322 81.7732ZM82.6557 52.8959L83.2646 52.7312C83.3797 53.1405 83.4856 53.5565 83.5788 53.969L82.9606 54.1017C82.8712 53.6992 82.768 53.2942 82.6557 52.8959ZM52.9019 82.5297C53.301 82.6355 53.7091 82.7326 54.1115 82.8177L53.9882 83.4369C53.5739 83.3495 53.1579 83.2501 52.747 83.142L52.9019 82.5297ZM83.2028 55.3202L83.8273 55.2205C83.8975 55.6372 83.9598 56.0615 84.0091 56.4825L83.3795 56.5483C83.3318 56.1393 83.2724 55.7259 83.2028 55.3202ZM55.3333 83.0436C55.7421 83.109 56.1562 83.1637 56.5644 83.2083L56.5033 83.8386C56.0841 83.7926 55.6593 83.7366 55.2396 83.6698L55.3333 83.0436ZM83.4915 57.7852L84.1234 57.7541C84.1499 58.1773 84.1654 58.607 84.1682 59.0294L83.5351 59.0267C83.5311 58.6152 83.5173 58.1974 83.4915 57.7852ZM57.8038 83.3109C58.2154 83.3348 58.6323 83.348 59.0454 83.3511L59.0486 83.9846C58.6256 83.9811 58.1968 83.9676 57.7753 83.9433L57.8038 83.3109ZM83.5104 60.2648L84.1438 60.3022C84.1237 60.7248 84.0918 61.1509 84.049 61.5717L83.4194 61.4998C83.4609 61.0918 83.4907 60.6755 83.5104 60.2648ZM60.2855 83.3288C60.6981 83.3111 61.1139 83.2827 61.5239 83.2441L61.5916 83.8748C61.1726 83.9141 60.7449 83.9442 60.3224 83.9615L60.2855 83.3288ZM83.2581 62.7293L83.884 62.8359C83.8185 63.2529 83.7401 63.6725 83.6509 64.0868L83.0317 63.9468C83.1186 63.5443 83.1949 63.1346 83.2581 62.7293ZM62.7558 83.0976C63.1633 83.0381 63.5741 82.9678 63.9781 82.8884L64.1083 83.5103C63.6944 83.5914 63.2727 83.6643 62.8552 83.7254L62.7558 83.0976ZM82.7402 65.1481L83.3518 65.3206C83.242 65.7272 83.1192 66.1364 82.9867 66.5373L82.3847 66.3324C82.514 65.9423 82.6336 65.544 82.7402 65.1481ZM65.1858 82.6172C65.5853 82.5168 65.9861 82.4055 66.3791 82.2841L66.5711 82.8903C66.1682 83.0134 65.7564 83.1292 65.347 83.2313L65.1858 82.6172ZM81.9673 67.4958L82.5587 67.732C82.4066 68.1223 82.2425 68.5162 82.0687 68.9018L81.4898 68.6363C81.6595 68.2605 81.8193 67.8763 81.9673 67.4958ZM67.5538 81.8908C67.9403 81.7503 68.3271 81.598 68.7061 81.4374L68.959 82.0209C68.57 82.1851 68.1723 82.3421 67.7758 82.4862L67.5538 81.8908ZM80.9575 69.7512L81.5229 70.045C81.3335 70.4182 81.1302 70.7929 80.9212 71.1594L80.3702 70.8404C80.5741 70.4806 80.7723 70.1146 80.9575 69.7512ZM69.8338 80.9256C70.2033 80.7469 70.5721 80.5552 70.9301 80.3582L71.2411 80.914C70.8731 81.1166 70.4953 81.3129 70.1158 81.4972L69.8338 80.9256ZM79.7321 71.8961L80.2687 72.2405C80.0451 72.5917 79.8095 72.9465 79.5672 73.2921L79.047 72.9245C79.2832 72.5866 79.5136 72.2406 79.7321 71.8961ZM71.9958 79.7323C72.3433 79.5162 72.6911 79.2881 73.0281 79.0547L73.3934 79.5766C73.0483 79.8157 72.6925 80.0494 72.335 80.2712L71.9958 79.7323ZM78.316 73.9226L78.8209 74.3124C78.568 74.6428 78.3033 74.9748 78.0327 75.2987L77.5441 74.8895C77.8086 74.5714 78.0673 74.2472 78.316 73.9226ZM74.0218 78.3263C74.3462 78.0756 74.668 77.814 74.9789 77.547L75.3946 78.031C75.0765 78.3046 74.7457 78.5729 74.4142 78.8303L74.0218 78.3263ZM76.7322 75.8244L77.2046 76.2528C76.9254 76.5615 76.6344 76.8718 76.3415 77.174L75.8854 76.7284C76.1732 76.4309 76.4592 76.1274 76.7322 75.8244Z" fill="#5391DB"/>
<defs>
<clipPath id="clip0_614_2161">
<rect width="13.2503" height="14.1337" fill="white" transform="translate(58.9011 40)"/>
</clipPath>
</defs>
</svg>
